<svg width="4400" height="2150" xmlns="http://www.w3.org/2000/svg" xmlns:xlink="http://www.w3.org/1999/xlink" xml:space="preserve" overflow="hidden"><defs><filter id="fx0" x="-10%" y="-10%" width="120%" height="120%" filterUnits="userSpaceOnUse" primitiveUnits="userSpaceOnUse"><feComponentTransfer color-interpolation-filters="sRGB"><feFuncR type="discrete" tableValues="0 0"/><feFuncG type="discrete" tableValues="0 0"/><feFuncB type="discrete" tableValues="0 0"/><feFuncA type="linear" slope="0.4" intercept="0"/></feComponentTransfer><feGaussianBlur stdDeviation="4.58333 4.58333"/></filter><filter id="fx1" x="-10%" y="-10%" width="120%" height="120%" filterUnits="userSpaceOnUse" primitiveUnits="userSpaceOnUse"><feComponentTransfer color-interpolation-filters="sRGB"><feFuncR type="discrete" tableValues="0 0"/><feFuncG type="discrete" tableValues="0 0"/><feFuncB type="discrete" tableValues="0 0"/><feFuncA type="linear" slope="0.4" intercept="0"/></feComponentTransfer><feGaussianBlur stdDeviation="4.58333 4.58333"/></filter><filter id="fx2" x="-10%" y="-10%" width="120%" height="120%" filterUnits="userSpaceOnUse" primitiveUnits="userSpaceOnUse"><feComponentTransfer color-interpolation-filters="sRGB"><feFuncR type="discrete" tableValues="0 0"/><feFuncG type="discrete" tableValues="0 0"/><feFuncB type="discrete" tableValues="0 0"/><feFuncA type="linear" slope="0.4" intercept="0"/></feComponentTransfer><feGaussianBlur stdDeviation="4.58333 4.58333"/></filter><filter id="fx3" x="-10%" y="-10%" width="120%" height="120%" filterUnits="userSpaceOnUse" primitiveUnits="userSpaceOnUse"><feComponentTransfer color-interpolation-filters="sRGB"><feFuncR type="discrete" tableValues="0 0"/><feFuncG type="discrete" tableValues="0 0"/><feFuncB type="discrete" tableValues="0 0"/><feFuncA type="linear" slope="0.4" intercept="0"/></feComponentTransfer><feGaussianBlur stdDeviation="4.58333 4.58333"/></filter><filter id="fx4" x="-10%" y="-10%" width="120%" height="120%" filterUnits="userSpaceOnUse" primitiveUnits="userSpaceOnUse"><feComponentTransfer color-interpolation-filters="sRGB"><feFuncR type="discrete" tableValues="0 0"/><feFuncG type="discrete" tableValues="0 0"/><feFuncB type="discrete" tableValues="0 0"/><feFuncA type="linear" slope="0.4" intercept="0"/></feComponentTransfer><feGaussianBlur stdDeviation="4.58333 4.58333"/></filter><filter id="fx5" x="-10%" y="-10%" width="120%" height="120%" filterUnits="userSpaceOnUse" primitiveUnits="userSpaceOnUse"><feComponentTransfer color-interpolation-filters="sRGB"><feFuncR type="discrete" tableValues="0 0"/><feFuncG type="discrete" tableValues="0 0"/><feFuncB type="discrete" tableValues="0 0"/><feFuncA type="linear" slope="0.4" intercept="0"/></feComponentTransfer><feGaussianBlur stdDeviation="4.58333 4.58333"/></filter><filter id="fx6" x="-10%" y="-10%" width="120%" height="120%" filterUnits="userSpaceOnUse" primitiveUnits="userSpaceOnUse"><feComponentTransfer color-interpolation-filters="sRGB"><feFuncR type="discrete" tableValues="0 0"/><feFuncG type="discrete" tableValues="0 0"/><feFuncB type="discrete" tableValues="0 0"/><feFuncA type="linear" slope="0.4" intercept="0"/></feComponentTransfer><feGaussianBlur stdDeviation="4.58333 4.58333"/></filter><filter id="fx7" x="-10%" y="-10%" width="120%" height="120%" filterUnits="userSpaceOnUse" primitiveUnits="userSpaceOnUse"><feComponentTransfer color-interpolation-filters="sRGB"><feFuncR type="discrete" tableValues="0 0"/><feFuncG type="discrete" tableValues="0 0"/><feFuncB type="discrete" tableValues="0 0"/><feFuncA type="linear" slope="0.4" intercept="0"/></feComponentTransfer><feGaussianBlur stdDeviation="4.58333 4.58333"/></filter><filter id="fx8" x="-10%" y="-10%" width="120%" height="120%" filterUnits="userSpaceOnUse" primitiveUnits="userSpaceOnUse"><feComponentTransfer color-interpolation-filters="sRGB"><feFuncR type="discrete" tableValues="0 0"/><feFuncG type="discrete" tableValues="0 0"/><feFuncB type="discrete" tableValues="0 0"/><feFuncA type="linear" slope="0.4" intercept="0"/></feComponentTransfer><feGaussianBlur stdDeviation="4.58333 4.58333"/></filter><filter id="fx9" x="-10%" y="-10%" width="120%" height="120%" filterUnits="userSpaceOnUse" primitiveUnits="userSpaceOnUse"><feComponentTransfer color-interpolation-filters="sRGB"><feFuncR type="discrete" tableValues="0 0"/><feFuncG type="discrete" tableValues="0 0"/><feFuncB type="discrete" tableValues="0 0"/><feFuncA type="linear" slope="0.4" intercept="0"/></feComponentTransfer><feGaussianBlur stdDeviation="4.58333 4.58333"/></filter><filter id="fx10" x="-10%" y="-10%" width="120%" height="120%" filterUnits="userSpaceOnUse" primitiveUnits="userSpaceOnUse"><feComponentTransfer color-interpolation-filters="sRGB"><feFuncR type="discrete" tableValues="0 0"/><feFuncG type="discrete" tableValues="0 0"/><feFuncB type="discrete" tableValues="0 0"/><feFuncA type="linear" slope="0.4" intercept="0"/></feComponentTransfer><feGaussianBlur stdDeviation="4.58333 4.58333"/></filter><filter id="fx11" x="-10%" y="-10%" width="120%" height="120%" filterUnits="userSpaceOnUse" primitiveUnits="userSpaceOnUse"><feComponentTransfer color-interpolation-filters="sRGB"><feFuncR type="discrete" tableValues="0 0"/><feFuncG type="discrete" tableValues="0 0"/><feFuncB type="discrete" tableValues="0 0"/><feFuncA type="linear" slope="0.4" intercept="0"/></feComponentTransfer><feGaussianBlur stdDeviation="4.58333 4.58333"/></filter></defs><g><g filter="url(#fx0)" transform="translate(1688 1979)"><g><path d="M23.5586 14.6205 71.6459 19.3932 71.1674 24.2144C70.5823 24.2395 69.8942 24.2544 69.1031 24.2592 64.3153 24.2833 61.2018 24.7336 59.7625 25.6104 58.323 26.4869 57.4766 28.2026 57.223 30.7573L54.2845 60.3638 56.8187 60.6154C79.1588 43.8992 90.5599 33.213 91.0221 28.5568 91.1326 27.4442 88.2228 26.3649 82.293 25.3186L82.7715 20.4974 120.846 24.2764 120.367 29.0974C114.166 29.1062 108.948 30.0134 104.711 31.8192 100.475 33.6249 90.4073 41.2498 74.5089 54.6937L102.463 96.9161C106.63 103.155 111.972 106.765 118.491 107.745L118.013 112.566 83.2142 109.112C78.0728 98.8646 69.3167 84.3676 56.946 65.6213L53.7937 65.3085 51.0577 92.8751C50.8533 94.9354 51.2933 96.6852 52.3781 98.1244 53.4628 99.5636 56.6282 100.897 61.8741 102.125L61.3956 106.946 14.8536 102.327 15.3322 97.506C21.5376 97.8722 25.3032 97.4554 26.629 96.2555 27.9548 95.0553 28.722 93.4047 28.9307 91.3031L35.0959 29.1854C35.3822 26.301 34.5381 24.2198 32.5635 22.942 30.5889 21.6641 28.0789 20.6451 25.0334 19.8851L23.0801 19.4417Z" fill-rule="evenodd"/></g></g><path d="M1706.7 1988.76 1754.78 1993.53 1754.31 1998.35C1753.72 1998.38 1753.03 1998.39 1752.24 1998.4 1747.45 1998.42 1744.34 1998.87 1742.9 1999.75 1741.46 2000.63 1740.62 2002.34 1740.36 2004.9L1737.42 2034.5 1739.96 2034.75C1762.3 2018.04 1773.7 2007.35 1774.16 2002.7 1774.27 2001.58 1771.36 2000.5 1765.43 1999.46L1765.91 1994.64 1803.98 1998.42 1803.51 2003.24C1797.3 2003.24 1792.09 2004.15 1787.85 2005.96 1783.61 2007.76 1773.55 2015.39 1757.65 2028.83L1785.6 2071.05C1789.77 2077.29 1795.11 2080.9 1801.63 2081.88L1801.15 2086.7 1766.35 2083.25C1761.21 2073 1752.46 2058.51 1740.08 2039.76L1736.93 2039.45 1734.2 2067.01C1733.99 2069.07 1734.43 2070.82 1735.52 2072.26 1736.6 2073.7 1739.77 2075.04 1745.01 2076.26L1744.53 2081.08 1697.99 2076.47 1698.47 2071.64C1704.68 2072.01 1708.44 2071.59 1709.77 2070.39 1711.09 2069.19 1711.86 2067.54 1712.07 2065.44L1718.23 2003.32C1718.52 2000.44 1717.68 1998.36 1715.7 1997.08 1713.73 1995.8 1711.22 1994.78 1708.17 1994.02L1706.22 1993.58Z" fill-rule="evenodd"/><text fill="#000000" fill-opacity="0" font-family="Arial,Arial_MSFontService,sans-serif" font-size="97.9452" x="1697.99" y="2074.46">K</text><g filter="url(#fx1)" transform="translate(1797 2055)"><g><path d="M28.2545 15.2793C31.5559 15.5527 34.3129 17.0066 36.5254 19.6414 38.7379 22.2759 39.7109 25.2026 39.4445 28.4216 39.1746 31.6816 37.7231 34.4077 35.0902 36.5996 32.4573 38.7915 29.5109 39.7524 26.2507 39.4827 22.8668 39.2024 20.066 37.7759 17.8484 35.2031 15.6306 32.6306 14.6584 29.6934 14.9318 26.3921 15.2017 23.1321 16.6333 20.394 19.2267 18.178 21.8201 15.9619 24.8293 14.9958 28.2545 15.2793Z" fill-rule="evenodd"/></g></g><path d="M1820.39 2065.42C1823.69 2065.69 1826.45 2067.15 1828.66 2069.78 1830.88 2072.41 1831.85 2075.34 1831.58 2078.56 1831.31 2081.82 1829.86 2084.55 1827.23 2086.74 1824.6 2088.93 1821.65 2089.89 1818.39 2089.62 1815.01 2089.34 1812.2 2087.91 1809.99 2085.34 1807.77 2082.77 1806.8 2079.83 1807.07 2076.53 1807.34 2073.27 1808.77 2070.53 1811.37 2068.32 1813.96 2066.1 1816.97 2065.13 1820.39 2065.42Z" fill-rule="evenodd"/><text fill="#000000" fill-opacity="0" font-family="Arial,Arial_MSFontService,sans-serif" font-size="24.2961" x="1807.03" y="2086.63">.</text><g filter="url(#fx2)" transform="translate(1866 1994)"><g><path d="M55.0596 23.1346 52.7032 61.6967 55.2451 61.8519C69.1324 62.7006 76.4663 56.7393 77.2467 43.9679 77.671 37.0243 76.5177 31.9651 73.787 28.7905 71.0563 25.616 66.5084 23.8342 60.1433 23.4453ZM20.5039 15.2981 68.9855 18.2606C91.5936 19.6421 102.451 27.6484 101.557 42.2798 101.001 51.3726 97.0823 58.1339 89.8005 62.5634 82.5189 66.9928 72.4097 68.8124 59.473 68.0219L52.3434 67.5863 50.8394 92.1991C50.6802 94.8029 51.4088 96.7972 53.0251 98.182 54.6414 99.5668 57.9788 100.621 63.0372 101.345L62.7418 106.181 15.1282 103.272 15.4237 98.4357C20.9047 98.3558 24.4414 97.8458 26.0337 96.9061 27.6261 95.9662 28.5044 94.1532 28.6686 91.4664L32.4608 29.4078C32.6451 26.3906 31.744 24.3339 29.7574 23.2375 27.771 22.1412 24.5879 21.1067 20.2084 20.1338Z" fill-rule="evenodd"/></g></g><path d="M1916.2 2012.27 1913.84 2050.84 1916.38 2050.99C1930.27 2051.84 1937.6 2045.88 1938.39 2033.11 1938.81 2026.16 1937.66 2021.1 1934.93 2017.93 1932.19 2014.75 1927.65 2012.97 1921.28 2012.58ZM1881.64 2004.44 1930.12 2007.4C1952.73 2008.78 1963.59 2016.79 1962.7 2031.42 1962.14 2040.51 1958.22 2047.27 1950.94 2051.7 1943.66 2056.13 1933.55 2057.95 1920.61 2057.16L1913.48 2056.72 1911.98 2081.34C1911.82 2083.94 1912.55 2085.94 1914.16 2087.32 1915.78 2088.71 1919.12 2089.76 1924.18 2090.48L1923.88 2095.32 1876.27 2092.41 1876.56 2087.57C1882.04 2087.49 1885.58 2086.98 1887.17 2086.04 1888.76 2085.1 1889.64 2083.29 1889.81 2080.6L1893.6 2018.55C1893.78 2015.53 1892.88 2013.47 1890.9 2012.38 1888.91 2011.28 1885.73 2010.25 1881.35 2009.27Z" fill-rule="evenodd"/><text fill="#000000" fill-opacity="0" font-family="Arial,Arial_MSFontService,sans-serif" font-size="90.8828" x="1876.27" y="2083.96">P</text><g filter="url(#fx3)" transform="translate(1957 2026)"><g><path d="M49.1268 19.6858C42.2595 19.3876 38.4091 25.9764 37.5753 39.4518L57.5675 40.0712C58.1459 26.7504 55.3323 19.9552 49.1268 19.6858ZM50.3407 14.6405C60.1865 15.0679 67.5928 17.752 72.5592 22.6925 77.5256 27.6329 79.8309 34.1989 79.4753 42.39L79.2976 46.4857 37.349 44.6644C36.6001 61.9154 43.0515 70.8373 56.7034 71.4301 63.7776 71.7372 70.0844 68.2391 75.6238 60.9364L80.1918 64.5541C72.5032 75.5353 62.1224 80.7423 49.0498 80.1747 37.7972 79.6862 29.208 76.329 23.282 70.1034 17.3558 63.8776 14.6128 55.6971 15.0529 45.5616 15.4443 36.5431 18.9104 29.0258 25.4508 23.0099 31.9913 16.9938 40.288 14.204 50.3407 14.6405Z" fill-rule="evenodd"/></g></g><path d="M2001.27 2040.82C1994.4 2040.53 1990.55 2047.12 1989.71 2060.59L2009.71 2061.21C2010.28 2047.89 2007.47 2041.09 2001.27 2040.82ZM2002.48 2035.78C2012.33 2036.21 2019.73 2038.89 2024.7 2043.83 2029.66 2048.77 2031.97 2055.34 2031.61 2063.53L2031.44 2067.62 1989.49 2065.8C1988.74 2083.05 1995.19 2091.98 2008.84 2092.57 2015.92 2092.88 2022.22 2089.38 2027.76 2082.07L2032.33 2085.69C2024.64 2096.67 2014.26 2101.88 2001.19 2101.31 1989.94 2100.82 1981.35 2097.47 1975.42 2091.24 1969.49 2085.02 1966.75 2076.84 1967.19 2066.7 1967.58 2057.68 1971.05 2050.16 1977.59 2044.15 1984.13 2038.13 1992.43 2035.34 2002.48 2035.78Z" fill-rule="evenodd"/><text fill="#000000" fill-opacity="0" font-family="Arial,Arial_MSFontService,sans-serif" font-size="65.6201" x="1967.15" y="2093.15">e</text><g filter="url(#fx4)" transform="translate(2024 2029)"><g><path d="M59.3213 23.9664C54.8093 23.8472 51.2058 25.4086 48.5103 28.651L47.5779 63.8563C49.7251 70.3751 53.4478 73.7047 58.7461 73.8451 62.8855 73.9547 66.2556 71.8278 68.8567 67.4645 71.4575 63.101 72.8708 56.6559 73.0967 48.1288 73.293 40.7191 72.2153 34.8707 69.8643 30.5834 67.5132 26.296 63.9988 24.0905 59.3213 23.9664ZM68.4536 14.6398C76.8979 14.8634 83.5552 18.0428 88.4258 24.1779 93.2961 30.3131 95.5981 38.4103 95.3318 48.4689 95.0906 57.5756 91.8677 65.0914 85.6631 71.0162 79.4585 76.941 72.0925 79.7906 63.5654 79.5648 56.9011 79.3883 51.6399 77.8407 47.782 74.9218L47.2854 74.9086 46.8232 92.3561C46.7827 93.8876 47.179 95.348 48.0122 96.7369 48.8452 98.1259 50.9514 99.1449 54.3311 99.7936 57.7104 100.442 59.6687 100.794 60.2058 100.85L60.0857 105.383 15.1943 104.194 15.3143 99.6613C20.7915 99.3092 24.0012 98.545 24.9437 97.3688 25.8861 96.1925 26.3832 94.6315 26.4347 92.6859L28.1183 29.1051C28.2466 24.2621 24.7192 21.3727 17.5365 20.4369L17.6581 15.8422 47.9993 15.0923 48.8472 15.9225 48.6665 22.7524 49.1599 22.8898C55.3994 17.2144 61.8306 14.4644 68.4536 14.6398Z" fill-rule="evenodd"/></g></g><path d="M2078.46 2048.1C2073.95 2047.99 2070.34 2049.55 2067.65 2052.79L2066.72 2087.99C2068.86 2094.51 2072.59 2097.84 2077.88 2097.98 2082.02 2098.09 2085.39 2095.97 2088 2091.6 2090.6 2087.24 2092.01 2080.79 2092.24 2072.27 2092.43 2064.86 2091.35 2059.01 2089 2054.72 2086.65 2050.43 2083.14 2048.23 2078.46 2048.1ZM2087.59 2038.78C2096.04 2039 2102.69 2042.18 2107.56 2048.32 2112.43 2054.45 2114.74 2062.55 2114.47 2072.61 2114.23 2081.71 2111.01 2089.23 2104.8 2095.15 2098.6 2101.08 2091.23 2103.93 2082.7 2103.7 2076.04 2103.53 2070.78 2101.98 2066.92 2099.06L2066.42 2099.05 2065.96 2116.49C2065.92 2118.03 2066.32 2119.49 2067.15 2120.88 2067.98 2122.26 2070.09 2123.28 2073.47 2123.93 2076.85 2124.58 2078.81 2124.93 2079.34 2124.99L2079.22 2129.52 2034.33 2128.33 2034.45 2123.8C2039.93 2123.45 2043.14 2122.68 2044.08 2121.51 2045.02 2120.33 2045.52 2118.77 2045.57 2116.82L2047.26 2053.24C2047.39 2048.4 2043.86 2045.51 2036.68 2044.58L2036.8 2039.98 2067.14 2039.23 2067.99 2040.06 2067.81 2046.89 2068.3 2047.03C2074.54 2041.35 2080.97 2038.6 2087.59 2038.78Z" fill-rule="evenodd"/><text fill="#000000" fill-opacity="0" font-family="Arial,Arial_MSFontService,sans-serif" font-size="90.7507" x="2034.33" y="2118.18">p</text><g filter="url(#fx5)" transform="translate(2109 2030)"><g><path d="M57.4934 24.4054C52.98 24.3673 49.405 25.9933 46.7683 29.2838L46.4705 64.5004C48.7346 70.9794 52.5168 74.2413 57.8169 74.2863 61.9575 74.3212 65.2888 72.1339 67.8108 67.7245 70.3325 63.3151 71.6296 56.8453 71.7019 48.3156 71.7644 40.9037 70.5818 35.0756 68.1538 30.8312 65.7258 26.5868 62.1724 24.4449 57.4934 24.4054ZM66.4561 14.9156C74.9031 14.9871 81.6167 18.046 86.5967 24.0924 91.5769 30.139 94.0244 38.1932 93.9395 48.255 93.8623 57.3646 90.7754 64.9371 84.6785 70.9728 78.5815 77.0084 71.2683 79.9904 62.7385 79.9181 56.072 79.8617 50.7837 78.4091 46.874 75.5602L46.377 75.556 46.2295 93.0089C46.2166 94.5411 46.6389 95.994 47.4971 97.3678 48.355 98.7416 50.4792 99.7223 53.8699 100.31 57.2605 100.898 59.2249 101.214 59.7627 101.26L59.7244 105.795 14.8186 105.415 14.8572 100.881C20.3269 100.43 23.5225 99.6083 24.4436 98.4152 25.3647 97.222 25.8335 95.6525 25.8499 93.7062L26.3879 30.1053C26.4287 25.2606 22.8501 22.4354 15.6516 21.6292L15.6904 17.033 46.0134 15.7366 46.876 16.5514 46.8184 23.3834 47.3142 23.5118C53.4502 17.725 59.8311 14.8596 66.4561 14.9156Z" fill-rule="evenodd"/></g></g><path d="M2161.63 2049.54C2157.12 2049.51 2153.54 2051.13 2150.91 2054.42L2150.61 2089.64C2152.87 2096.12 2156.66 2099.38 2161.96 2099.42 2166.1 2099.46 2169.43 2097.27 2171.95 2092.86 2174.47 2088.45 2175.77 2081.98 2175.84 2073.45 2175.9 2066.04 2174.72 2060.21 2172.29 2055.97 2169.86 2051.73 2166.31 2049.58 2161.63 2049.54ZM2170.59 2040.05C2179.04 2040.13 2185.76 2043.18 2190.74 2049.23 2195.72 2055.28 2198.16 2063.33 2198.08 2073.39 2198 2082.5 2194.91 2090.08 2188.82 2096.11 2182.72 2102.15 2175.41 2105.13 2166.88 2105.06 2160.21 2105 2154.92 2103.55 2151.01 2100.7L2150.52 2100.69 2150.37 2118.15C2150.36 2119.68 2150.78 2121.13 2151.64 2122.51 2152.49 2123.88 2154.62 2124.86 2158.01 2125.45 2161.4 2126.04 2163.36 2126.35 2163.9 2126.4L2163.86 2130.93 2118.96 2130.55 2119 2126.02C2124.47 2125.57 2127.66 2124.75 2128.58 2123.55 2129.5 2122.36 2129.97 2120.79 2129.99 2118.84L2130.53 2055.24C2130.57 2050.4 2126.99 2047.57 2119.79 2046.77L2119.83 2042.17 2150.15 2040.88 2151.01 2041.69 2150.96 2048.52 2151.45 2048.65C2157.59 2042.86 2163.97 2040 2170.59 2040.05Z" fill-rule="evenodd"/><text fill="#000000" fill-opacity="0" font-family="Arial,Arial_MSFontService,sans-serif" font-size="90.8796" x="2118.96" y="2119.57">p</text><g filter="url(#fx6)" transform="translate(2197 2030)"><g><path d="M47.4583 19.7986C40.5847 19.856 37.0801 26.6349 36.9443 40.1356L56.9419 39.7203C56.8306 26.3873 53.6694 19.7467 47.4583 19.7986ZM48.4097 14.6973C58.2644 14.615 65.7996 16.9125 71.0146 21.5896 76.23 26.2667 78.8718 32.7045 78.9404 40.9032L78.9746 45.0023 36.988 45.3529C37.1321 62.6195 44.0364 71.1959 57.7007 71.0819 64.7812 71.0226 70.8987 67.2032 76.053 59.6237L80.802 63.0004C73.6914 74.3646 63.594 80.1014 50.5095 80.2106 39.2468 80.3046 30.4954 77.3961 24.2551 71.4852 18.0151 65.5743 14.8528 57.5465 14.7681 47.402 14.6926 38.3751 17.7654 30.6888 23.9858 24.3424 30.2065 17.9963 38.3477 14.7812 48.4097 14.6973Z" fill-rule="evenodd"/></g></g><path d="M2239.6 2044.94C2232.72 2044.99 2229.22 2051.77 2229.08 2065.27L2249.08 2064.86C2248.97 2051.53 2245.81 2044.89 2239.6 2044.94ZM2240.55 2039.84C2250.4 2039.75 2257.94 2042.05 2263.15 2046.73 2268.37 2051.41 2271.01 2057.84 2271.08 2066.04L2271.11 2070.14 2229.13 2070.49C2229.27 2087.76 2236.18 2096.33 2249.84 2096.22 2256.92 2096.16 2263.04 2092.34 2268.19 2084.76L2272.94 2088.14C2265.83 2099.5 2255.73 2105.24 2242.65 2105.35 2231.39 2105.44 2222.63 2102.53 2216.39 2096.62 2210.15 2090.71 2206.99 2082.69 2206.91 2072.54 2206.83 2063.51 2209.9 2055.83 2216.12 2049.48 2222.35 2043.14 2230.49 2039.92 2240.55 2039.84Z" fill-rule="evenodd"/><text fill="#000000" fill-opacity="0" font-family="Arial,Arial_MSFontService,sans-serif" font-size="65.5175" x="2206.91" y="2097.16">e</text><g filter="url(#fx7)" transform="translate(2267 2029)"><g><path d="M64.8281 14.5416C68.7192 14.4509 71.8625 15.579 74.2573 17.9255 76.6521 20.2721 77.8936 23.3289 77.9812 27.0958 78.0583 30.4076 77.1094 33.236 75.1345 35.5807 73.1594 37.9254 70.6404 39.1337 67.5769 39.205 64.3479 39.2802 61.7212 38.5336 59.6965 36.9655 57.6719 35.3973 56.6267 33.2057 56.5613 30.3907 56.5149 28.4037 56.7612 26.5341 57.3003 24.7819 52.917 25.0909 49.1206 27.4781 45.9111 31.9435L46.7036 65.9718C46.7529 68.0831 47.3191 69.7267 48.4028 70.9027 49.4863 72.0785 52.9111 72.8478 58.6768 73.2106L58.7839 77.8058 17.1797 78.7748 17.0728 74.1796C21.4551 73.829 24.1091 73.0734 25.0347 71.9127 25.9602 70.7523 26.4004 69.1991 26.355 67.2535L25.5134 31.1139C25.3938 25.9806 21.8899 23.1422 15.0015 22.5985L14.8945 18.0034 44.478 15.7611 45.5554 16.668 45.7651 25.6718 46.0134 25.6659C52.0156 18.4021 58.2874 14.694 64.8281 14.5416Z" fill-rule="evenodd"/></g></g><path d="M2326.97 2038.68C2330.86 2038.59 2334 2039.72 2336.4 2042.06 2338.79 2044.41 2340.03 2047.47 2340.12 2051.23 2340.2 2054.55 2339.25 2057.37 2337.27 2059.72 2335.3 2062.06 2332.78 2063.27 2329.72 2063.34 2326.49 2063.42 2323.86 2062.67 2321.84 2061.1 2319.81 2059.54 2318.77 2057.34 2318.7 2054.53 2318.65 2052.54 2318.9 2050.67 2319.44 2048.92 2315.06 2049.23 2311.26 2051.62 2308.05 2056.08L2308.84 2090.11C2308.89 2092.22 2309.46 2093.87 2310.54 2095.04 2311.62 2096.22 2315.05 2096.99 2320.82 2097.35L2320.92 2101.94 2279.32 2102.91 2279.21 2098.32C2283.59 2097.97 2286.25 2097.21 2287.17 2096.05 2288.1 2094.89 2288.54 2093.34 2288.49 2091.39L2287.65 2055.25C2287.53 2050.12 2284.03 2047.28 2277.14 2046.74L2277.03 2042.14 2306.62 2039.9 2307.69 2040.81 2307.9 2049.81 2308.15 2049.8C2314.15 2042.54 2320.43 2038.83 2326.97 2038.68Z" fill-rule="evenodd"/><text fill="#000000" fill-opacity="0" font-family="Arial,Arial_MSFontService,sans-serif" font-size="64.238" x="2277.03" y="2094.88">r</text><g filter="url(#fx8)" transform="translate(2371 1998)"><g><path d="M44.324 15.4531C54.4995 14.9808 62.5964 17.0612 68.6147 21.6941 74.6333 26.3269 77.8391 32.8832 78.2327 41.3628 78.5342 47.8568 76.6304 53.7279 72.5212 58.9757 68.4124 64.2238 59.2742 70.078 45.1069 76.5389 36.3806 80.5504 30.7039 84.1715 28.0764 87.4022L28.1052 88.0228 83.2639 85.463 84.1133 103.766 15.739 106.94 15.1602 94.4684C17.0759 90.1927 22.6321 84.4218 31.8291 77.1552 47.7036 64.6044 55.3796 52.7036 54.8574 41.4526 54.2163 27.6372 49.3457 20.9406 40.2456 21.3628 37.5156 21.4895 35.1387 22.0765 33.1147 23.1239 35.1199 27.9222 36.1992 31.9761 36.3528 35.2852 36.4851 38.1393 35.5798 40.5129 33.6365 42.4064 31.6931 44.2998 29.0049 45.3262 25.5715 45.4855 22.3867 45.6333 19.8635 44.8591 18.0022 43.163 16.1411 41.4669 15.1414 39.1298 15.0032 36.1516 14.7595 30.8983 17.3621 26.2385 22.8108 22.172 28.2598 18.1055 35.4307 15.8658 44.324 15.4531Z" fill-rule="evenodd"/></g></g><path d="M2410.46 2008.59C2420.64 2008.12 2428.74 2010.2 2434.75 2014.83 2440.77 2019.47 2443.98 2026.02 2444.37 2034.5 2444.67 2041 2442.77 2046.87 2438.66 2052.11 2434.55 2057.36 2425.41 2063.22 2411.25 2069.68 2402.52 2073.69 2396.84 2077.31 2394.22 2080.54L2394.24 2081.16 2449.4 2078.6 2450.25 2096.91 2381.88 2100.08 2381.3 2087.61C2383.21 2083.33 2388.77 2077.56 2397.97 2070.29 2413.84 2057.74 2421.52 2045.84 2421 2034.59 2420.35 2020.78 2415.48 2014.08 2406.38 2014.5 2403.65 2014.63 2401.28 2015.22 2399.25 2016.26 2401.26 2021.06 2402.34 2025.11 2402.49 2028.42 2402.62 2031.28 2401.72 2033.65 2399.78 2035.55 2397.83 2037.44 2395.14 2038.46 2391.71 2038.62 2388.53 2038.77 2386 2038 2384.14 2036.3 2382.28 2034.61 2381.28 2032.27 2381.14 2029.29 2380.9 2024.04 2383.5 2019.38 2388.95 2015.31 2394.4 2011.24 2401.57 2009 2410.46 2008.59Z" fill-rule="evenodd"/><text fill="#000000" fill-opacity="0" font-family="Arial,Arial_MSFontService,sans-serif" font-size="91.5519" x="2381.13" y="2088.63">2</text><g filter="url(#fx9)" transform="translate(2449 1994)"><g><path d="M49.7131 20.4398C40.6636 21.0238 37.0042 34.725 38.7351 61.5431 40.4846 88.6505 45.8428 101.915 54.8098 101.336 63.8594 100.752 67.5093 86.9064 65.7598 59.799 64.0291 32.9808 58.6802 19.8611 49.7131 20.4398ZM49.353 14.8612C61.2954 14.0905 70.6772 17.5308 77.499 25.1819 84.3206 32.833 88.1968 43.8694 89.1277 58.2909 90.0798 73.0428 87.6023 84.6449 81.6953 93.0968 75.7886 101.549 66.9465 106.155 55.1697 106.915 43.1035 107.693 33.6926 104.286 26.937 96.693 20.1812 89.1 16.3247 77.8859 15.3672 63.0511 14.4446 48.7538 16.9028 37.3397 22.7424 28.8092 28.582 20.2787 37.4524 15.6293 49.353 14.8612Z" fill-rule="evenodd"/></g></g><path d="M2493.85 2009.58C2484.8 2010.16 2481.14 2023.86 2482.87 2050.68 2484.62 2077.79 2489.98 2091.05 2498.95 2090.47 2508 2089.89 2511.65 2076.04 2509.9 2048.94 2508.17 2022.12 2502.82 2009 2493.85 2009.58ZM2493.49 2004C2505.43 2003.23 2514.82 2006.67 2521.64 2014.32 2528.46 2021.97 2532.34 2033.01 2533.27 2047.43 2534.22 2062.18 2531.74 2073.78 2525.83 2082.24 2519.93 2090.69 2511.09 2095.29 2499.31 2096.05 2487.24 2096.83 2477.83 2093.42 2471.08 2085.83 2464.32 2078.24 2460.46 2067.02 2459.51 2052.19 2458.58 2037.89 2461.04 2026.48 2466.88 2017.95 2472.72 2009.42 2481.59 2004.77 2493.49 2004Z" fill-rule="evenodd"/><text fill="#000000" fill-opacity="0" font-family="Arial,Arial_MSFontService,sans-serif" font-size="92.2678" x="2459.32" y="2084.63">0</text><g filter="url(#fx10)" transform="translate(2535 1988)"><g><path d="M43.1733 14.9904C53.325 14.1484 61.4922 15.933 67.675 20.3439 73.8579 24.7549 77.3003 31.1902 78.002 39.6498 78.5393 46.1287 76.8501 52.0651 72.9346 57.459 69.0193 62.8529 60.1001 69.0355 46.177 76.0072 37.6025 80.3334 32.061 84.1586 29.553 87.4828L29.6042 88.1017 84.6333 83.538 86.1477 101.798 17.9341 107.456 16.9021 95.0138C18.6611 90.6713 24.0039 84.702 32.9304 77.1058 48.3379 63.9863 55.5762 51.8142 54.6453 40.5897 53.5022 26.8066 48.3914 20.2915 39.3127 21.0444 36.5891 21.2704 34.2351 21.9435 32.2505 23.0637 34.4287 27.786 35.6548 31.7979 35.9285 35.0991 36.1648 37.9465 35.3462 40.3517 33.4729 42.3145 31.5999 44.2772 28.9507 45.4006 25.5254 45.6847 22.3479 45.9482 19.7983 45.2664 17.8767 43.639 15.9551 42.0117 14.8711 39.7125 14.6248 36.7413 14.1899 31.5005 16.6213 26.749 21.9187 22.4871 27.2163 18.2251 34.301 15.7262 43.1733 14.9904Z" fill-rule="evenodd"/></g></g><path d="M2573.31 1998.13C2583.46 1997.29 2591.63 1999.07 2597.81 2003.48 2604 2007.89 2607.44 2014.33 2608.14 2022.79 2608.68 2029.27 2606.99 2035.2 2603.07 2040.6 2599.16 2045.99 2590.24 2052.17 2576.32 2059.15 2567.74 2063.47 2562.2 2067.3 2559.69 2070.62L2559.74 2071.24 2614.77 2066.68 2616.29 2084.94 2548.07 2090.59 2547.04 2078.15C2548.8 2073.81 2554.14 2067.84 2563.07 2060.24 2578.48 2047.12 2585.71 2034.95 2584.78 2023.73 2583.64 2009.95 2578.53 2003.43 2569.45 2004.18 2566.73 2004.41 2564.37 2005.08 2562.39 2006.2 2564.57 2010.92 2565.79 2014.94 2566.07 2018.24 2566.3 2021.09 2565.48 2023.49 2563.61 2025.45 2561.74 2027.42 2559.09 2028.54 2555.66 2028.82 2552.49 2029.09 2549.94 2028.41 2548.02 2026.78 2546.09 2025.15 2545.01 2022.85 2544.76 2019.88 2544.33 2014.64 2546.76 2009.89 2552.06 2005.63 2557.35 2001.36 2564.44 1998.86 2573.31 1998.13Z" fill-rule="evenodd"/><text fill="#000000" fill-opacity="0" font-family="Arial,Arial_MSFontService,sans-serif" font-size="92.6676" x="2544.71" y="2079.01">2</text><g filter="url(#fx11)" transform="translate(2615 1980)"><g><path d="M44.6477 15.4978C54.7817 14.4674 62.7102 15.6904 68.4329 19.1666 74.1555 22.6429 77.3037 27.203 77.8777 32.8469 78.4138 38.12 76.9536 42.7948 73.4973 46.8713 70.041 50.9479 64.9255 54.059 58.1514 56.2045L58.2517 57.1932C66.5168 57.0188 73.0574 58.6118 77.8733 61.9722 82.6892 65.3325 85.4177 70.1642 86.0586 76.4672 86.8586 84.3356 83.7651 91.1639 76.7786 96.952 69.792 102.74 60.634 106.21 49.3052 107.362 40.6541 108.242 33.3008 107.148 27.2449 104.08 21.1892 101.012 17.9058 96.965 17.3948 91.9391 17.085 88.8905 17.8203 86.2977 19.6008 84.1605 21.3813 82.0233 23.7546 80.8038 26.7207 80.5023 30.0989 80.1588 32.8862 80.7599 35.0828 82.3055 37.2793 83.851 38.5242 86.0658 38.8174 88.9493 39.1106 91.8331 38.6006 96.0262 37.2871 101.529 39.2659 102.16 42.1914 102.279 46.0637 101.885 51.7078 101.312 56.0076 98.9806 58.9631 94.8925 61.9189 90.8043 63.0532 85.3822 62.3665 78.6261 61.2019 67.1738 55.5115 61.9669 45.2949 63.0057L37.447 63.8036 36.6868 56.3265 42.2483 55.7611C47.439 55.2334 51.0215 53.3187 52.9958 50.0171 54.9702 46.7156 55.6348 41.8927 54.9897 35.5486 53.9595 25.4143 49.1187 20.787 40.4675 21.6666 37.3367 21.985 34.7688 22.7246 32.7642 23.8857 35.0759 29.0199 36.3762 33.0083 36.6653 35.8508 36.9668 38.8169 36.1943 41.2471 34.3474 43.1414 32.5005 45.0356 29.9087 46.1525 26.5718 46.4917 23.5645 46.7975 21.0334 46.0559 18.9785 44.267 16.9236 42.478 15.7454 40.1005 15.4438 37.1344 14.937 32.1497 17.4119 27.5278 22.8684 23.2687 28.3247 19.0095 35.5845 16.4193 44.6477 15.4978Z" fill-rule="evenodd"/></g></g><path d="M2654.79 1990.64C2664.92 1989.61 2672.85 1990.83 2678.57 1994.31 2684.29 1997.78 2687.44 2002.34 2688.02 2007.99 2688.55 2013.26 2687.09 2017.93 2683.64 2022.01 2680.18 2026.09 2675.06 2029.2 2668.29 2031.34L2668.39 2032.33C2676.66 2032.16 2683.2 2033.75 2688.01 2037.11 2692.83 2040.47 2695.56 2045.3 2696.2 2051.61 2697 2059.47 2693.9 2066.3 2686.92 2072.09 2679.93 2077.88 2670.77 2081.35 2659.44 2082.5 2650.79 2083.38 2643.44 2082.29 2637.38 2079.22 2631.33 2076.15 2628.04 2072.1 2627.53 2067.08 2627.22 2064.03 2627.96 2061.44 2629.74 2059.3 2631.52 2057.16 2633.89 2055.94 2636.86 2055.64 2640.24 2055.3 2643.02 2055.9 2645.22 2057.44 2647.42 2058.99 2648.66 2061.2 2648.96 2064.09 2649.25 2066.97 2648.74 2071.16 2647.43 2076.67 2649.4 2077.3 2652.33 2077.42 2656.2 2077.02 2661.85 2076.45 2666.15 2074.12 2669.1 2070.03 2672.06 2065.94 2673.19 2060.52 2672.51 2053.76 2671.34 2042.31 2665.65 2037.11 2655.43 2038.14L2647.59 2038.94 2646.83 2031.47 2652.39 2030.9C2657.58 2030.37 2661.16 2028.46 2663.13 2025.16 2665.11 2021.85 2665.77 2017.03 2665.13 2010.69 2664.1 2000.55 2659.26 1995.93 2650.61 1996.81 2647.48 1997.12 2644.91 1997.86 2642.9 1999.02 2645.21 2004.16 2646.51 2008.15 2646.8 2010.99 2647.11 2013.96 2646.33 2016.39 2644.49 2018.28 2642.64 2020.17 2640.05 2021.29 2636.71 2021.63 2633.7 2021.94 2631.17 2021.19 2629.12 2019.41 2627.06 2017.62 2625.88 2015.24 2625.58 2012.27 2625.08 2007.29 2627.55 2002.67 2633.01 1998.41 2638.46 1994.15 2645.72 1991.56 2654.79 1990.64Z" fill-rule="evenodd"/><text fill="#000000" fill-opacity="0" font-family="Arial,Arial_MSFontService,sans-serif" font-size="92.5116" x="2625.52" y="2071.23">3</text></g></svg>